<svg version="1.0" xmlns="http://www.w3.org/2000/svg"
    width="28.000000pt" height="28.000000pt" viewBox="0 0 28.000000 28.000000"
    preserveAspectRatio="xMidYMid meet">

    <g transform="translate(0.000000,28.000000) scale(0.100000,-0.100000)"
        fill="#ffffff" stroke="none">
        <path
            d="M0 140 l0 -140 140 0 140 0 0 140 0 140 -140 0 -140 0 0 -140z m110
60 c0 -49 1 -50 30 -50 29 0 30 1 30 50 0 43 3 50 20 50 19 0 20 -7 20 -110 0
-103 -1 -110 -20 -110 -17 0 -20 7 -20 50 0 49 -1 50 -30 50 -29 0 -30 -1 -30
-50 0 -43 -3 -50 -20 -50 -19 0 -20 7 -20 110 0 103 1 110 20 110 17 0 20 -7
20 -50z" />
    </g>
</svg>