<svg version="1.0" xmlns="http://www.w3.org/2000/svg"
    width="26.000000pt" height="28.000000pt" viewBox="0 0 26.000000 28.000000"
    preserveAspectRatio="xMidYMid meet">

    <g transform="translate(0.000000,28.000000) scale(0.100000,-0.100000)"
        fill="#ffffff" stroke="none">
        <path
            d="M45 219 c-4 -6 2 -21 14 -33 12 -12 19 -25 15 -28 -6 -7 31 -84 45
-93 6 -3 -1 14 -14 37 -30 53 -30 54 -2 53 33 -2 49 -15 42 -34 -5 -13 -4 -13
6 -4 10 10 9 17 -6 33 -10 11 -25 18 -33 15 -15 -5 -62 30 -62 47 0 15 23 8
49 -14 l26 -23 -24 28 c-26 28 -45 34 -56 16z" />
    </g>
</svg>